<mxfile host="app.diagrams.net" modified="2023-04-11T16:22:59.511Z" agent="Mozilla/5.0 (X11; Ubuntu; Linux x86_64; rv:109.0) Gecko/20100101 Firefox/111.0" etag="0CIB_QKKwIAPmG3qX5Lz" version="21.1.5" type="device">
  <diagram id="EH_e0qSgiGkDKoqyTkFW" name="Page-1">
    <mxGraphModel dx="607" dy="1935" grid="1" gridSize="10" guides="1" tooltips="1" connect="1" arrows="1" fold="1" page="1" pageScale="1" pageWidth="827" pageHeight="1169" math="0" shadow="0">
      <root>
        <mxCell id="0" />
        <mxCell id="1" parent="0" />
        <mxCell id="atwJxONAnes26B3LBHNf-1" value="" style="whiteSpace=wrap;html=1;aspect=fixed;strokeWidth=1;" parent="1" vertex="1">
          <mxGeometry x="1032.5" y="356" width="100" height="100" as="geometry" />
        </mxCell>
        <mxCell id="atwJxONAnes26B3LBHNf-2" value="&lt;div&gt;&lt;font style=&quot;font-size: 16px;&quot;&gt;Gateway&lt;/font&gt;&lt;/div&gt;&lt;div&gt;&lt;font style=&quot;font-size: 16px;&quot;&gt;service&lt;br&gt;&lt;/font&gt;&lt;/div&gt;" style="text;html=1;align=center;verticalAlign=middle;whiteSpace=wrap;rounded=0;strokeWidth=1;fontSize=16;" parent="1" vertex="1">
          <mxGeometry x="1055" y="388.5" width="55" height="35" as="geometry" />
        </mxCell>
        <mxCell id="atwJxONAnes26B3LBHNf-5" value="" style="whiteSpace=wrap;html=1;aspect=fixed;strokeWidth=1;" parent="1" vertex="1">
          <mxGeometry x="1522.5" y="226" width="100" height="100" as="geometry" />
        </mxCell>
        <mxCell id="atwJxONAnes26B3LBHNf-6" value="&lt;div style=&quot;font-size: 16px;&quot;&gt;&lt;font style=&quot;font-size: 16px;&quot;&gt;Games&lt;br&gt;&lt;/font&gt;&lt;/div&gt;&lt;div style=&quot;font-size: 16px;&quot;&gt;&lt;font style=&quot;font-size: 16px;&quot;&gt;service&lt;br&gt;&lt;/font&gt;&lt;/div&gt;" style="text;html=1;align=center;verticalAlign=middle;whiteSpace=wrap;rounded=0;strokeWidth=1;" parent="1" vertex="1">
          <mxGeometry x="1545" y="258.5" width="55" height="35" as="geometry" />
        </mxCell>
        <mxCell id="atwJxONAnes26B3LBHNf-7" value="" style="whiteSpace=wrap;html=1;aspect=fixed;strokeWidth=1;" parent="1" vertex="1">
          <mxGeometry x="1522.5" y="356" width="100" height="100" as="geometry" />
        </mxCell>
        <mxCell id="atwJxONAnes26B3LBHNf-14" value="" style="whiteSpace=wrap;html=1;aspect=fixed;strokeWidth=1;" parent="1" vertex="1">
          <mxGeometry x="1122.5" y="485" width="100" height="100" as="geometry" />
        </mxCell>
        <mxCell id="atwJxONAnes26B3LBHNf-15" value="&lt;font style=&quot;font-size: 16px;&quot;&gt;Discovery service&lt;br&gt;&lt;/font&gt;" style="text;html=1;align=center;verticalAlign=middle;whiteSpace=wrap;rounded=0;strokeWidth=1;fontSize=16;" parent="1" vertex="1">
          <mxGeometry x="1145" y="516" width="55" height="35" as="geometry" />
        </mxCell>
        <mxCell id="atwJxONAnes26B3LBHNf-19" value="" style="endArrow=classic;html=1;entryX=1;entryY=1;entryDx=0;entryDy=0;strokeWidth=1;exitX=0.108;exitY=0.005;exitDx=0;exitDy=0;exitPerimeter=0;" parent="1" source="W00vm2dhb-37jX--9wPL-1" edge="1">
          <mxGeometry width="50" height="50" relative="1" as="geometry">
            <mxPoint x="1520" y="500" as="sourcePoint" />
            <mxPoint x="1359.9264068711927" y="259.2842712474617" as="targetPoint" />
          </mxGeometry>
        </mxCell>
        <mxCell id="atwJxONAnes26B3LBHNf-20" value="" style="whiteSpace=wrap;html=1;aspect=fixed;strokeWidth=1;" parent="1" vertex="1">
          <mxGeometry x="1256.5" y="480" width="100" height="100" as="geometry" />
        </mxCell>
        <mxCell id="atwJxONAnes26B3LBHNf-21" value="&lt;div&gt;&lt;font style=&quot;font-size: 16px;&quot;&gt;Config&lt;/font&gt;&lt;/div&gt;&lt;div&gt;&lt;font style=&quot;font-size: 16px;&quot;&gt;service&lt;/font&gt;&lt;/div&gt;" style="text;html=1;align=center;verticalAlign=middle;whiteSpace=wrap;rounded=0;strokeWidth=1;fontSize=16;" parent="1" vertex="1">
          <mxGeometry x="1279" y="516" width="55" height="35" as="geometry" />
        </mxCell>
        <mxCell id="atwJxONAnes26B3LBHNf-32" value="" style="endArrow=classic;html=1;exitX=0.5;exitY=1;exitDx=0;exitDy=0;entryX=0;entryY=0.5;entryDx=0;entryDy=0;strokeWidth=1;" parent="1" source="atwJxONAnes26B3LBHNf-1" target="atwJxONAnes26B3LBHNf-14" edge="1">
          <mxGeometry width="50" height="50" relative="1" as="geometry">
            <mxPoint x="1307.5" y="391" as="sourcePoint" />
            <mxPoint x="1082.5" y="551" as="targetPoint" />
            <Array as="points">
              <mxPoint x="1082.5" y="534" />
            </Array>
          </mxGeometry>
        </mxCell>
        <mxCell id="atwJxONAnes26B3LBHNf-33" value="" style="endArrow=classic;html=1;entryX=0.5;entryY=1;entryDx=0;entryDy=0;exitX=0.5;exitY=1;exitDx=0;exitDy=0;strokeWidth=1;" parent="1" source="atwJxONAnes26B3LBHNf-1" target="atwJxONAnes26B3LBHNf-20" edge="1">
          <mxGeometry width="50" height="50" relative="1" as="geometry">
            <mxPoint x="1087.5" y="451" as="sourcePoint" />
            <mxPoint x="1307.5" y="621" as="targetPoint" />
            <Array as="points">
              <mxPoint x="1082.5" y="621" />
              <mxPoint x="1306.5" y="621" />
            </Array>
          </mxGeometry>
        </mxCell>
        <mxCell id="atwJxONAnes26B3LBHNf-34" value="" style="endArrow=classic;html=1;exitX=1;exitY=0.5;exitDx=0;exitDy=0;strokeWidth=1;" parent="1" source="atwJxONAnes26B3LBHNf-5" edge="1">
          <mxGeometry width="50" height="50" relative="1" as="geometry">
            <mxPoint x="1627.5" y="311" as="sourcePoint" />
            <mxPoint x="1324.5" y="580" as="targetPoint" />
            <Array as="points">
              <mxPoint x="1687.5" y="276" />
              <mxPoint x="1687.5" y="641" />
              <mxPoint x="1324.5" y="641" />
            </Array>
          </mxGeometry>
        </mxCell>
        <mxCell id="atwJxONAnes26B3LBHNf-35" value="" style="endArrow=none;html=1;exitX=1;exitY=0.5;exitDx=0;exitDy=0;strokeWidth=1;" parent="1" source="atwJxONAnes26B3LBHNf-7" edge="1">
          <mxGeometry width="50" height="50" relative="1" as="geometry">
            <mxPoint x="1617.5" y="423.5" as="sourcePoint" />
            <mxPoint x="1688.5" y="406" as="targetPoint" />
          </mxGeometry>
        </mxCell>
        <mxCell id="atwJxONAnes26B3LBHNf-37" value="" style="endArrow=classic;html=1;entryX=0.5;entryY=1;entryDx=0;entryDy=0;strokeWidth=1;" parent="1" target="atwJxONAnes26B3LBHNf-14" edge="1">
          <mxGeometry width="50" height="50" relative="1" as="geometry">
            <mxPoint x="1327.5" y="641" as="sourcePoint" />
            <mxPoint x="1167.5" y="641" as="targetPoint" />
            <Array as="points">
              <mxPoint x="1172.5" y="641" />
            </Array>
          </mxGeometry>
        </mxCell>
        <mxCell id="atwJxONAnes26B3LBHNf-38" value="" style="endArrow=none;html=1;strokeWidth=1;" parent="1" edge="1">
          <mxGeometry width="50" height="50" relative="1" as="geometry">
            <mxPoint x="1090" y="160" as="sourcePoint" />
            <mxPoint x="1687.5" y="281" as="targetPoint" />
            <Array as="points">
              <mxPoint x="1080" y="160" />
              <mxPoint x="1090" y="160" />
              <mxPoint x="1470" y="161" />
              <mxPoint x="1687.5" y="161" />
            </Array>
          </mxGeometry>
        </mxCell>
        <mxCell id="atwJxONAnes26B3LBHNf-40" value="&lt;div style=&quot;font-size: 16px;&quot;&gt;&lt;font style=&quot;font-size: 16px;&quot;&gt;Login &lt;br&gt;&lt;/font&gt;&lt;/div&gt;&lt;div style=&quot;font-size: 16px;&quot;&gt;&lt;font style=&quot;font-size: 16px;&quot;&gt;database&lt;/font&gt;&lt;/div&gt;&lt;font style=&quot;font-size: 16px;&quot;&gt;(Postgres)&lt;/font&gt;" style="shape=cylinder3;whiteSpace=wrap;html=1;boundedLbl=1;backgroundOutline=1;size=15;strokeWidth=1;" parent="1" vertex="1">
          <mxGeometry x="1808.5" y="320" width="100" height="120" as="geometry" />
        </mxCell>
        <mxCell id="atwJxONAnes26B3LBHNf-43" value="" style="endArrow=classic;startArrow=classic;html=1;exitX=1;exitY=0.25;exitDx=0;exitDy=0;entryX=0;entryY=0.5;entryDx=0;entryDy=0;entryPerimeter=0;strokeWidth=1;" parent="1" source="atwJxONAnes26B3LBHNf-7" target="atwJxONAnes26B3LBHNf-40" edge="1">
          <mxGeometry width="50" height="50" relative="1" as="geometry">
            <mxPoint x="1847.5" y="466" as="sourcePoint" />
            <mxPoint x="1737.5" y="381" as="targetPoint" />
          </mxGeometry>
        </mxCell>
        <mxCell id="atwJxONAnes26B3LBHNf-100" style="edgeStyle=orthogonalEdgeStyle;rounded=0;orthogonalLoop=1;jettySize=auto;html=1;exitX=1;exitY=0.5;exitDx=0;exitDy=0;entryX=-0.031;entryY=0.5;entryDx=0;entryDy=0;entryPerimeter=0;fontSize=16;strokeWidth=1;" parent="1" source="atwJxONAnes26B3LBHNf-98" target="atwJxONAnes26B3LBHNf-1" edge="1">
          <mxGeometry relative="1" as="geometry" />
        </mxCell>
        <mxCell id="atwJxONAnes26B3LBHNf-98" value="" style="ellipse;whiteSpace=wrap;html=1;aspect=fixed;fontSize=16;strokeWidth=1;" parent="1" vertex="1">
          <mxGeometry x="890" y="366" width="80" height="80" as="geometry" />
        </mxCell>
        <mxCell id="atwJxONAnes26B3LBHNf-99" value="&lt;font style=&quot;font-size: 16px;&quot;&gt;Client&lt;/font&gt;" style="text;html=1;align=center;verticalAlign=middle;whiteSpace=wrap;rounded=0;strokeWidth=1;" parent="1" vertex="1">
          <mxGeometry x="902.5" y="388.5" width="55" height="35" as="geometry" />
        </mxCell>
        <mxCell id="atwJxONAnes26B3LBHNf-101" value="&lt;div style=&quot;font-size: 16px;&quot;&gt;&lt;font style=&quot;font-size: 16px;&quot;&gt;Games &lt;br&gt;&lt;/font&gt;&lt;/div&gt;&lt;div style=&quot;font-size: 16px;&quot;&gt;&lt;font style=&quot;font-size: 16px;&quot;&gt;database&lt;/font&gt;&lt;/div&gt;&lt;div style=&quot;font-size: 16px;&quot;&gt;&lt;font style=&quot;font-size: 16px;&quot;&gt;(Postgres)&lt;br&gt;&lt;/font&gt;&lt;/div&gt;" style="shape=cylinder3;whiteSpace=wrap;html=1;boundedLbl=1;backgroundOutline=1;size=15;strokeWidth=1;" parent="1" vertex="1">
          <mxGeometry x="1808.5" y="171" width="100" height="120" as="geometry" />
        </mxCell>
        <mxCell id="atwJxONAnes26B3LBHNf-102" value="&amp;nbsp;" style="text;whiteSpace=wrap;html=1;fontSize=16;" parent="1" vertex="1">
          <mxGeometry x="1818.5" y="330" width="30" height="30" as="geometry" />
        </mxCell>
        <mxCell id="atwJxONAnes26B3LBHNf-104" value="" style="endArrow=classic;startArrow=classic;html=1;rounded=0;fontSize=16;strokeColor=default;strokeWidth=1;exitX=1;exitY=0.25;exitDx=0;exitDy=0;entryX=0.005;entryY=0.669;entryDx=0;entryDy=0;entryPerimeter=0;" parent="1" source="atwJxONAnes26B3LBHNf-5" target="atwJxONAnes26B3LBHNf-101" edge="1">
          <mxGeometry width="50" height="50" relative="1" as="geometry">
            <mxPoint x="1708.5" y="350" as="sourcePoint" />
            <mxPoint x="1758.5" y="300" as="targetPoint" />
          </mxGeometry>
        </mxCell>
        <mxCell id="W00vm2dhb-37jX--9wPL-1" value="" style="whiteSpace=wrap;html=1;aspect=fixed;strokeWidth=1;" parent="1" vertex="1">
          <mxGeometry x="1522.5" y="490" width="100" height="100" as="geometry" />
        </mxCell>
        <mxCell id="W00vm2dhb-37jX--9wPL-5" value="" style="whiteSpace=wrap;html=1;aspect=fixed;strokeWidth=1;" parent="1" vertex="1">
          <mxGeometry x="1032.5" y="181" width="100" height="100" as="geometry" />
        </mxCell>
        <mxCell id="W00vm2dhb-37jX--9wPL-6" value="&lt;div&gt;&lt;font style=&quot;font-size: 16px;&quot;&gt;Orders&lt;/font&gt;&lt;/div&gt;&lt;div&gt;&lt;font style=&quot;font-size: 16px;&quot;&gt;service&lt;br&gt;&lt;/font&gt;&lt;/div&gt;" style="text;html=1;align=center;verticalAlign=middle;whiteSpace=wrap;rounded=0;strokeWidth=1;" parent="1" vertex="1">
          <mxGeometry x="1055" y="213.5" width="55" height="35" as="geometry" />
        </mxCell>
        <mxCell id="W00vm2dhb-37jX--9wPL-7" value="&lt;font style=&quot;font-size: 17px&quot;&gt;Kafka&lt;/font&gt;" style="ellipse;whiteSpace=wrap;html=1;strokeWidth=1;" parent="1" vertex="1">
          <mxGeometry x="1257.5" y="191" width="120" height="80" as="geometry" />
        </mxCell>
        <mxCell id="W00vm2dhb-37jX--9wPL-8" value="" style="endArrow=classic;html=1;exitX=0;exitY=0.5;exitDx=0;exitDy=0;entryX=1;entryY=0.5;entryDx=0;entryDy=0;strokeWidth=1;" parent="1" source="W00vm2dhb-37jX--9wPL-7" target="W00vm2dhb-37jX--9wPL-5" edge="1">
          <mxGeometry width="50" height="50" relative="1" as="geometry">
            <mxPoint x="1187.5" y="251" as="sourcePoint" />
            <mxPoint x="1237.5" y="201" as="targetPoint" />
          </mxGeometry>
        </mxCell>
        <mxCell id="W00vm2dhb-37jX--9wPL-11" value="" style="endArrow=classic;startArrow=classic;html=1;exitX=1;exitY=0.5;exitDx=0;exitDy=0;entryX=0;entryY=0.5;entryDx=0;entryDy=0;entryPerimeter=0;strokeWidth=1;" parent="1" source="W00vm2dhb-37jX--9wPL-1" target="W00vm2dhb-37jX--9wPL-15" edge="1">
          <mxGeometry width="50" height="50" relative="1" as="geometry">
            <mxPoint x="1622.5" y="563.5" as="sourcePoint" />
            <mxPoint x="1808.5" y="562.5" as="targetPoint" />
          </mxGeometry>
        </mxCell>
        <mxCell id="W00vm2dhb-37jX--9wPL-15" value="&lt;font style=&quot;font-size: 16px;&quot;&gt;Cart database&lt;/font&gt;&lt;div style=&quot;font-size: 16px;&quot;&gt;&lt;div style=&quot;font-size: 16px;&quot;&gt;&lt;font style=&quot;font-size: 16px;&quot;&gt;(Redis)&lt;br&gt;&lt;/font&gt;&lt;/div&gt;&lt;/div&gt;" style="shape=cylinder3;whiteSpace=wrap;html=1;boundedLbl=1;backgroundOutline=1;size=15;strokeWidth=1;" parent="1" vertex="1">
          <mxGeometry x="1808.5" y="480" width="100" height="120" as="geometry" />
        </mxCell>
        <mxCell id="lRarXc7YgcVal84siH0v-1" value="&lt;div style=&quot;font-size: 16px;&quot;&gt;&lt;font style=&quot;font-size: 16px;&quot;&gt;Login&lt;/font&gt;&lt;/div&gt;&lt;div style=&quot;font-size: 16px;&quot;&gt;&lt;font style=&quot;font-size: 16px;&quot;&gt;&amp;nbsp;service&lt;br&gt;&lt;/font&gt;&lt;/div&gt;" style="text;html=1;align=center;verticalAlign=middle;whiteSpace=wrap;rounded=0;strokeWidth=1;" parent="1" vertex="1">
          <mxGeometry x="1545" y="390" width="55" height="35" as="geometry" />
        </mxCell>
        <mxCell id="lRarXc7YgcVal84siH0v-2" value="" style="endArrow=classic;startArrow=classic;html=1;strokeWidth=1;exitX=0.482;exitY=-0.005;exitDx=0;exitDy=0;exitPerimeter=0;" parent="1" source="W00vm2dhb-37jX--9wPL-1" edge="1">
          <mxGeometry width="50" height="50" relative="1" as="geometry">
            <mxPoint x="1574" y="506" as="sourcePoint" />
            <mxPoint x="1571" y="456" as="targetPoint" />
            <Array as="points" />
          </mxGeometry>
        </mxCell>
        <mxCell id="atwJxONAnes26B3LBHNf-8" value="&lt;div style=&quot;font-size: 16px;&quot;&gt;&lt;font style=&quot;font-size: 16px;&quot;&gt;Cart service&lt;br&gt;&lt;/font&gt;&lt;/div&gt;" style="text;html=1;align=center;verticalAlign=middle;whiteSpace=wrap;rounded=0;strokeWidth=1;" parent="1" vertex="1">
          <mxGeometry x="1545" y="522.5" width="55" height="35" as="geometry" />
        </mxCell>
        <mxCell id="lRarXc7YgcVal84siH0v-10" value="" style="endArrow=classic;startArrow=classic;html=1;strokeWidth=1;entryX=0.5;entryY=1;entryDx=0;entryDy=0;exitX=0.5;exitY=0;exitDx=0;exitDy=0;" parent="1" source="atwJxONAnes26B3LBHNf-7" target="atwJxONAnes26B3LBHNf-5" edge="1">
          <mxGeometry width="50" height="50" relative="1" as="geometry">
            <mxPoint x="1573" y="360" as="sourcePoint" />
            <mxPoint x="1581" y="466" as="targetPoint" />
            <Array as="points" />
          </mxGeometry>
        </mxCell>
        <mxCell id="lRarXc7YgcVal84siH0v-13" value="&lt;div style=&quot;font-size: 16px;&quot;&gt;&lt;font style=&quot;font-size: 16px;&quot;&gt;Orders&lt;br&gt;&lt;/font&gt;&lt;/div&gt;&lt;div style=&quot;font-size: 16px;&quot;&gt;&lt;font style=&quot;font-size: 16px;&quot;&gt;database&lt;/font&gt;&lt;/div&gt;&lt;div style=&quot;font-size: 16px;&quot;&gt;&lt;font style=&quot;font-size: 16px;&quot;&gt;(Postgres)&lt;br&gt;&lt;/font&gt;&lt;/div&gt;" style="shape=cylinder3;whiteSpace=wrap;html=1;boundedLbl=1;backgroundOutline=1;size=15;strokeWidth=1;" parent="1" vertex="1">
          <mxGeometry x="1032.5" y="-10" width="100" height="120" as="geometry" />
        </mxCell>
        <mxCell id="lRarXc7YgcVal84siH0v-14" value="" style="endArrow=classic;startArrow=classic;html=1;exitX=0.5;exitY=1;exitDx=0;exitDy=0;entryX=0.5;entryY=0;entryDx=0;entryDy=0;strokeWidth=1;exitPerimeter=0;" parent="1" source="lRarXc7YgcVal84siH0v-13" target="W00vm2dhb-37jX--9wPL-5" edge="1">
          <mxGeometry width="50" height="50" relative="1" as="geometry">
            <mxPoint x="1632.5" y="550" as="sourcePoint" />
            <mxPoint x="1818.5" y="550" as="targetPoint" />
          </mxGeometry>
        </mxCell>
        <mxCell id="cSzc4VXm8d2Folp5lfYR-4" value="" style="endArrow=classic;startArrow=classic;html=1;rounded=0;entryX=0;entryY=0.5;entryDx=0;entryDy=0;exitX=1;exitY=0.5;exitDx=0;exitDy=0;" edge="1" parent="1" source="atwJxONAnes26B3LBHNf-1" target="W00vm2dhb-37jX--9wPL-1">
          <mxGeometry width="50" height="50" relative="1" as="geometry">
            <mxPoint x="1190" y="500" as="sourcePoint" />
            <mxPoint x="1240" y="450" as="targetPoint" />
          </mxGeometry>
        </mxCell>
        <mxCell id="cSzc4VXm8d2Folp5lfYR-5" value="" style="endArrow=classic;startArrow=classic;html=1;rounded=0;entryX=0;entryY=0.5;entryDx=0;entryDy=0;exitX=1;exitY=0.5;exitDx=0;exitDy=0;" edge="1" parent="1" source="atwJxONAnes26B3LBHNf-1" target="atwJxONAnes26B3LBHNf-7">
          <mxGeometry width="50" height="50" relative="1" as="geometry">
            <mxPoint x="1170" y="410" as="sourcePoint" />
            <mxPoint x="1220" y="360" as="targetPoint" />
          </mxGeometry>
        </mxCell>
        <mxCell id="cSzc4VXm8d2Folp5lfYR-6" value="" style="endArrow=classic;startArrow=classic;html=1;rounded=0;entryX=0;entryY=0.5;entryDx=0;entryDy=0;exitX=1;exitY=0.5;exitDx=0;exitDy=0;" edge="1" parent="1" source="atwJxONAnes26B3LBHNf-1" target="atwJxONAnes26B3LBHNf-5">
          <mxGeometry width="50" height="50" relative="1" as="geometry">
            <mxPoint x="1220" y="370" as="sourcePoint" />
            <mxPoint x="1270" y="320" as="targetPoint" />
          </mxGeometry>
        </mxCell>
        <mxCell id="cSzc4VXm8d2Folp5lfYR-7" value="" style="endArrow=classic;startArrow=classic;html=1;rounded=0;entryX=0.5;entryY=1;entryDx=0;entryDy=0;exitX=0.5;exitY=0;exitDx=0;exitDy=0;" edge="1" parent="1" source="atwJxONAnes26B3LBHNf-1" target="W00vm2dhb-37jX--9wPL-5">
          <mxGeometry width="50" height="50" relative="1" as="geometry">
            <mxPoint x="1083" y="350" as="sourcePoint" />
            <mxPoint x="1100" y="300" as="targetPoint" />
          </mxGeometry>
        </mxCell>
      </root>
    </mxGraphModel>
  </diagram>
</mxfile>
